<svg width="14" height="20" viewBox="0 0 14 20" fill="none" xmlns="http://www.w3.org/2000/svg">
<path d="M3.75226 17.7477C3.75265 17.9934 3.82531 18.234 3.96163 18.4387L4.6292 19.4422C4.74324 19.6137 4.89791 19.7544 5.07947 19.8518C5.26102 19.9491 5.46381 20 5.6698 20H8.0803C8.28629 20 8.48908 19.9491 8.67063 19.8518C8.85218 19.7544 9.00686 19.6137 9.1209 19.4422L9.78846 18.4387C9.92473 18.234 9.99756 17.9936 9.99783 17.7477L9.9994 16.2497H3.75031L3.75226 17.7477ZM0 6.87489C0 8.60805 0.642564 10.1893 1.70153 11.3974C2.34683 12.1338 3.35618 13.672 3.74094 14.9696C3.7425 14.9798 3.74367 14.99 3.74523 15.0001H10.0045C10.006 14.99 10.0072 14.9802 10.0088 14.9696C10.3935 13.672 11.4029 12.1338 12.0482 11.3974C13.1071 10.1893 13.7497 8.60805 13.7497 6.87489C13.7497 3.07067 10.6603 -0.0116852 6.85337 3.33031e-05C2.86869 0.0121424 0 3.24098 0 6.87489ZM6.87485 3.74995C5.15184 3.74995 3.74992 5.15188 3.74992 6.87489C3.74992 7.22019 3.47024 7.49987 3.12493 7.49987C2.77963 7.49987 2.49995 7.22019 2.49995 6.87489C2.49995 4.46244 4.46241 2.49998 6.87485 2.49998C7.22016 2.49998 7.49984 2.77966 7.49984 3.12497C7.49984 3.47027 7.22016 3.74995 6.87485 3.74995Z" fill="black"/>
</svg>
