<svg width="20" height="20" viewBox="0 0 20 20" fill="none" xmlns="http://www.w3.org/2000/svg">
<path d="M17.875 1.25001H13.1875L12.8203 0.519538C12.7425 0.363372 12.6227 0.232008 12.4743 0.140225C12.326 0.0484421 12.1549 -0.00011828 11.9805 6.84872e-06H7.51562C7.34155 -0.000662313 7.17081 0.047717 7.02297 0.139602C6.87512 0.231487 6.75615 0.363161 6.67969 0.519538L6.3125 1.25001H1.625C1.45924 1.25001 1.30027 1.31585 1.18306 1.43306C1.06585 1.55027 1 1.70925 1 1.87501L1 3.12501C1 3.29077 1.06585 3.44974 1.18306 3.56695C1.30027 3.68416 1.45924 3.75001 1.625 3.75001H17.875C18.0408 3.75001 18.1997 3.68416 18.3169 3.56695C18.4341 3.44974 18.5 3.29077 18.5 3.12501V1.87501C18.5 1.70925 18.4341 1.55027 18.3169 1.43306C18.1997 1.31585 18.0408 1.25001 17.875 1.25001ZM3.07812 18.2422C3.10793 18.7182 3.31803 19.165 3.66565 19.4915C4.01326 19.8181 4.47226 19.9999 4.94922 20H14.5508C15.0277 19.9999 15.4867 19.8181 15.8343 19.4915C16.182 19.165 16.3921 18.7182 16.4219 18.2422L17.25 5H2.25L3.07812 18.2422Z" fill="black"/>
</svg>
