<svg width="20" height="20" viewBox="0 0 20 20" fill="none" xmlns="http://www.w3.org/2000/svg">
<g clip-path="url(#clip0)">
<path d="M17.9061 2.5116C15.6483 0.613161 12.16 0.898317 9.99988 3.09754C7.83973 0.898317 4.35144 0.609254 2.09363 2.5116C-0.843868 4.98425 -0.41418 9.0155 1.67957 11.1522L8.53113 18.1327C8.92176 18.5311 9.4452 18.7538 9.99988 18.7538C10.5585 18.7538 11.078 18.535 11.4686 18.1366L18.3202 11.1561C20.41 9.01941 20.8475 4.98816 17.9061 2.5116ZM16.9843 9.83582L10.1327 16.8163C10.0389 16.91 9.96082 16.91 9.86707 16.8163L3.01551 9.83582C1.58973 8.38269 1.30066 5.63269 3.30066 3.9491C4.8202 2.67175 7.16395 2.86316 8.6327 4.35925L9.99988 5.75379L11.3671 4.35925C12.8436 2.85535 15.1874 2.67175 16.6991 3.94519C18.6952 5.62879 18.3983 8.39441 16.9843 9.83582Z" fill="black"/>
</g>
<defs>
<clipPath id="clip0">
<rect width="20" height="20" fill="white"/>
</clipPath>
</defs>
</svg>
