<svg width="20" height="20" viewBox="0 0 14 20" fill="none" xmlns="http://www.w3.org/2000/svg">
<path d="M6.87513 3.12506C4.80713 3.12506 3.12506 4.80713 3.12506 6.87513C3.12506 7.22045 3.40475 7.50015 3.75007 7.50015C4.09539 7.50015 4.37509 7.22045 4.37509 6.87513C4.37509 5.4962 5.49698 4.37509 6.87513 4.37509C7.22045 4.37509 7.50015 4.09539 7.50015 3.75007C7.50015 3.40475 7.22045 3.12506 6.87513 3.12506ZM3.75242 17.9367C3.75242 18.0597 3.78875 18.1797 3.85711 18.282L4.81455 19.7211C4.93057 19.8953 5.12588 20 5.33487 20H8.41501C8.62439 20 8.8197 19.8953 8.93533 19.7211L9.89277 18.282C9.96074 18.1797 9.99707 18.0593 9.99746 17.9367L9.99941 16.2499H3.75085L3.75242 17.9367ZM6.87513 0C2.87974 0 0 3.24108 0 6.87513C0 8.60837 0.642591 10.1897 1.7016 11.3979C2.35161 12.1397 3.37116 13.6948 3.74929 14.9979V15.0003H5.62433V14.9956C5.62394 14.8093 5.5962 14.6241 5.54034 14.446C5.32198 13.7503 4.64892 11.9159 3.11178 10.1619C2.30942 9.24667 1.88051 8.0857 1.87699 6.87513C1.86918 3.99852 4.20789 1.87504 6.87513 1.87504C9.63222 1.87504 11.8752 4.11805 11.8752 6.87513C11.8752 8.08492 11.4362 9.25213 10.6389 10.1619C9.11112 11.9045 8.43493 13.735 8.21305 14.4378C8.15579 14.6185 8.12654 14.8068 8.12633 14.9964V15.0003H10.0014V14.9983C10.3795 13.6948 11.3991 12.1397 12.0491 11.3983C13.1077 10.1897 13.7503 8.60837 13.7503 6.87513C13.7503 3.07819 10.6721 0 6.87513 0Z" fill="black"/>
</svg>
