<svg width="20" height="16" viewBox="0 0 20 16" fill="none" xmlns="http://www.w3.org/2000/svg">
<path d="M16.25 15.5H12.9688C12.7109 15.5 12.5 15.2891 12.5 15.0312V13.4688C12.5 13.2109 12.7109 13 12.9688 13H16.25C16.9414 13 17.5 12.4414 17.5 11.75V4.25C17.5 3.55859 16.9414 3 16.25 3H12.9688C12.7109 3 12.5 2.78906 12.5 2.53125V0.96875C12.5 0.710938 12.7109 0.5 12.9688 0.5H16.25C18.3203 0.5 20 2.17969 20 4.25V11.75C20 13.8203 18.3203 15.5 16.25 15.5ZM14.4141 7.64844L7.85156 1.08594C7.26562 0.5 6.25 0.910156 6.25 1.75V5.5H0.9375C0.417969 5.5 0 5.91797 0 6.4375V10.1875C0 10.707 0.417969 11.125 0.9375 11.125H6.25V14.875C6.25 15.7148 7.26562 16.125 7.85156 15.5391L14.4141 8.97656C14.7773 8.60938 14.7773 8.01562 14.4141 7.64844Z" fill="black"/>
</svg>
