<svg width="20" height="20" viewBox="0 0 20 20" fill="none" xmlns="http://www.w3.org/2000/svg">
<path d="M0.714286 3.67347H19.2857C19.6802 3.67347 20 3.30801 20 2.85714V0.816327C20 0.365459 19.6802 0 19.2857 0H0.714286C0.319777 0 0 0.365459 0 0.816327V2.85714C0 3.30801 0.319777 3.67347 0.714286 3.67347ZM0.714286 11.8367H19.2857C19.6802 11.8367 20 11.4713 20 11.0204V8.97959C20 8.52872 19.6802 8.16327 19.2857 8.16327H0.714286C0.319777 8.16327 0 8.52872 0 8.97959V11.0204C0 11.4713 0.319777 11.8367 0.714286 11.8367ZM0.714286 20H19.2857C19.6802 20 20 19.6345 20 19.1837V17.1429C20 16.692 19.6802 16.3265 19.2857 16.3265H0.714286C0.319777 16.3265 0 16.692 0 17.1429V19.1837C0 19.6345 0.319777 20 0.714286 20Z" fill="black"/>
</svg>
