<svg width="20" height="20" viewBox="0 0 20 20" fill="none" xmlns="http://www.w3.org/2000/svg">
<g clip-path="url(#clip0)">
<path d="M19.8124 16.7188L1.12494 2.10969C1.07368 2.06865 1.01484 2.03811 0.951785 2.01981C0.888726 2.00151 0.82268 1.99581 0.757417 2.00304C0.692155 2.01026 0.628955 2.03027 0.571426 2.06192C0.513897 2.09357 0.463165 2.13624 0.422127 2.1875L0.109627 2.57781C0.0684923 2.62909 0.0378722 2.68797 0.0195185 2.75109C0.00116477 2.81421 -0.00456226 2.88033 0.00266509 2.94567C0.00989243 3.011 0.0299323 3.07427 0.061638 3.13186C0.0933436 3.18944 0.136093 3.24021 0.187439 3.28125L18.8749 17.8903C18.9262 17.9314 18.985 17.9619 19.0481 17.9802C19.1112 17.9985 19.1772 18.0042 19.2425 17.997C19.3077 17.9897 19.3709 17.9697 19.4285 17.9381C19.486 17.9064 19.5367 17.8638 19.5778 17.8125L19.8903 17.4222C19.9314 17.3709 19.962 17.312 19.9804 17.2489C19.9987 17.1858 20.0044 17.1197 19.9972 17.0543C19.99 16.989 19.9699 16.9257 19.9382 16.8681C19.9065 16.8106 19.8638 16.7598 19.8124 16.7188ZM9.27463 6.57719L13.4868 9.87031C13.4174 7.99719 11.8899 6.5 9.99994 6.5C9.75614 6.50046 9.51306 6.52633 9.27463 6.57719ZM10.7253 13.4231L6.51306 10.13C6.58275 12.0028 8.11025 13.5 9.99994 13.5C10.2437 13.4995 10.4868 13.4737 10.7253 13.4231ZM9.99994 5.5C13.0828 5.5 15.909 7.21875 17.4353 10C17.0611 10.6845 16.5988 11.317 16.0603 11.8813L17.2396 12.8031C17.8962 12.1007 18.4526 11.3108 18.8928 10.4559C18.9642 10.3145 19.0015 10.1583 19.0015 9.99984C19.0015 9.84139 18.9642 9.68516 18.8928 9.54375C17.1965 6.23719 13.8415 4 9.99994 4C8.85306 4 7.759 4.21875 6.73025 4.58781L8.18056 5.72188C8.77244 5.5875 9.37869 5.5 9.99994 5.5ZM9.99994 14.5C6.91713 14.5 4.09119 12.7812 2.56463 10C2.93925 9.31552 3.40205 8.68314 3.94119 8.11906L2.76181 7.19719C2.1053 7.89952 1.54909 8.6893 1.109 9.54406C1.03751 9.68547 1.00027 9.8417 1.00027 10.0002C1.00027 10.1586 1.03751 10.3148 1.109 10.4563C2.80369 13.7628 6.15869 16 9.99994 16C11.1468 16 12.2409 15.7797 13.2696 15.4122L11.8193 14.2784C11.2274 14.4125 10.6215 14.5 9.99994 14.5Z" fill="black"/>
</g>
<defs>
<clipPath id="clip0">
<rect width="20" height="16" fill="white" transform="translate(0 2)"/>
</clipPath>
</defs>
</svg>
