<svg width="20" height="20" viewBox="0 0 20 20" fill="none" xmlns="http://www.w3.org/2000/svg">
<path d="M10 5.77778C9.63199 5.78354 9.2667 5.842 8.91528 5.95139C9.07783 6.23727 9.16438 6.56004 9.16667 6.8889C9.16667 7.14424 9.11637 7.39709 9.01865 7.633C8.92093 7.86892 8.77771 8.08327 8.59715 8.26383C8.41659 8.44439 8.20224 8.58761 7.96632 8.68533C7.73041 8.78305 7.47757 8.83334 7.22222 8.83334C6.89336 8.83106 6.57059 8.74451 6.28471 8.58195C6.05917 9.36418 6.08546 10.1975 6.35985 10.964C6.63425 11.7304 7.14284 12.3911 7.8136 12.8525C8.48435 13.3138 9.28325 13.5524 10.0971 13.5345C10.911 13.5165 11.6987 13.243 12.3484 12.7526C12.9982 12.2621 13.4772 11.5797 13.7176 10.8019C13.958 10.0241 13.9475 9.19038 13.6877 8.41885C13.428 7.64732 12.932 6.97709 12.2702 6.50308C11.6083 6.02907 10.8141 5.77533 10 5.77778ZM19.8792 9.15973C17.9962 5.48577 14.2684 3 10 3C5.73159 3 2.00276 5.4875 0.120815 9.16008C0.0413845 9.3172 0 9.4908 0 9.66685C0 9.84291 0.0413845 10.0165 0.120815 10.1736C2.0038 13.8476 5.73159 16.3334 10 16.3334C14.2684 16.3334 17.9972 13.8459 19.8792 10.1733C19.9586 10.0162 20 9.84256 20 9.66651C20 9.49045 19.9586 9.31685 19.8792 9.15973ZM10 14.6667C6.57465 14.6667 3.43436 12.757 1.73853 9.66668C3.43436 6.5764 6.5743 4.66667 10 4.66667C13.4257 4.66667 16.5656 6.5764 18.2615 9.66668C16.566 12.757 13.4257 14.6667 10 14.6667Z" fill="black"/>
</svg>
