<svg width="150" height="160" viewBox="0 0 150 160" fill="none" xmlns="http://www.w3.org/2000/svg">
<g clip-path="url(#clip0)">
<mask id="mask0" mask-type="alpha" maskUnits="userSpaceOnUse" x="6" y="23" width="138" height="137">
<path d="M75 159.545C112.656 159.545 143.182 129.019 143.182 91.3636C143.182 53.7078 112.656 23.1818 75 23.1818C37.3442 23.1818 6.81819 53.7078 6.81819 91.3636C6.81819 129.019 37.3442 159.545 75 159.545Z" fill="white"/>
</mask>
<g mask="url(#mask0)">
<path d="M75 159.545C112.656 159.545 143.182 129.019 143.182 91.3636C143.182 53.7078 112.656 23.1818 75 23.1818C37.3442 23.1818 6.81819 53.7078 6.81819 91.3636C6.81819 129.019 37.3442 159.545 75 159.545Z" fill="#E6E6E6"/>
<path d="M143.182 23.1818H6.81819V159.545H143.182V23.1818Z" fill="#65C9FF"/>
</g>
<mask id="mask1" mask-type="alpha" maskUnits="userSpaceOnUse" x="0" y="0" width="150" height="160">
<path d="M6.81818 91.3636C6.81818 129.019 37.3442 159.545 75 159.545C112.656 159.545 143.182 129.019 143.182 91.3636H150V0.454542H0V91.3636H6.81818Z" fill="white"/>
</mask>
<g mask="url(#mask1)">
<mask id="mask2" mask-type="alpha" maskUnits="userSpaceOnUse" x="18" y="20" width="114" height="140">
<path d="M88.6363 103.074V113.523H90.9091C113.503 113.523 131.818 131.838 131.818 154.432V159.545H18.1818V154.432C18.1818 131.838 36.4974 113.523 59.0909 113.523H61.3636V103.074C51.5696 98.4218 44.5296 88.9131 43.3552 77.6598C40.0456 77.1919 37.5 74.3478 37.5 70.9091V62.9545C37.5 59.5761 39.9571 56.7716 43.1818 56.2306V52.7273C43.1818 35.1546 57.4273 20.9091 75 20.9091C92.5727 20.9091 106.818 35.1546 106.818 52.7273V56.2306C110.043 56.7716 112.5 59.5761 112.5 62.9545V70.9091C112.5 74.3478 109.954 77.1919 106.645 77.6598C105.47 88.9131 98.4303 98.4218 88.6363 103.074Z" fill="white"/>
</mask>
<g mask="url(#mask2)">
<path d="M88.6363 103.074V113.523H90.9091C113.503 113.523 131.818 131.838 131.818 154.432V159.545H18.1818V154.432C18.1818 131.838 36.4974 113.523 59.0909 113.523H61.3636V103.074C51.5696 98.4218 44.5296 88.9131 43.3552 77.6598C40.0456 77.1919 37.5 74.3478 37.5 70.9091V62.9545C37.5 59.5761 39.9571 56.7716 43.1818 56.2306V52.7273C43.1818 35.1546 57.4273 20.9091 75 20.9091C92.5727 20.9091 106.818 35.1546 106.818 52.7273V56.2306C110.043 56.7716 112.5 59.5761 112.5 62.9545V70.9091C112.5 74.3478 109.954 77.1919 106.645 77.6598C105.47 88.9131 98.4303 98.4218 88.6363 103.074Z" fill="#D0C6AC"/>
<path d="M150 20.9091H-1.52588e-05V159.545H150V20.9091Z" fill="#EDB98A"/>
<path fill-rule="evenodd" clip-rule="evenodd" d="M106.818 65.7954V78.8636C106.818 96.4363 92.5727 110.682 75 110.682C57.4273 110.682 43.1818 96.4363 43.1818 78.8636V65.7954V74.3182C43.1818 91.8909 57.4273 106.136 75 106.136C92.5727 106.136 106.818 91.8909 106.818 74.3182V65.7954Z" fill="black" fill-opacity="0.1"/>
</g>
<mask id="mask3" mask-type="alpha" maskUnits="userSpaceOnUse" x="18" y="113" width="114" height="47">
<path fill-rule="evenodd" clip-rule="evenodd" d="M94.2957 113.69C115.305 115.412 131.818 133.008 131.818 154.461V159.545H18.1818V154.461C18.1818 132.814 34.9954 115.094 56.2758 113.647C56.2586 113.86 56.25 114.073 56.25 114.288C56.25 121.029 64.7718 126.493 75.2841 126.493C85.7963 126.493 94.3181 121.029 94.3181 114.288C94.3181 114.088 94.3106 113.888 94.2957 113.69Z" fill="white"/>
</mask>
<g mask="url(#mask3)">
<path fill-rule="evenodd" clip-rule="evenodd" d="M94.2957 113.69C115.305 115.412 131.818 133.008 131.818 154.461V159.545H18.1818V154.461C18.1818 132.814 34.9954 115.094 56.2758 113.647C56.2586 113.86 56.25 114.073 56.25 114.288C56.25 121.029 64.7718 126.493 75.2841 126.493C85.7963 126.493 94.3181 121.029 94.3181 114.288C94.3181 114.088 94.3106 113.888 94.2957 113.69Z" fill="#E6E6E6"/>
<path d="M150 97.0455H-1.52588e-05V159.545H150V97.0455Z" fill="#262E33"/>
<g opacity="0.6">
<g opacity="0.6">
<path opacity="0.6" d="M75.2841 130.433C87.7215 130.433 97.804 123.586 97.804 115.141C97.804 106.695 87.7215 99.8487 75.2841 99.8487C62.8467 99.8487 52.7641 106.695 52.7641 115.141C52.7641 123.586 62.8467 130.433 75.2841 130.433Z" fill="black" fill-opacity="0.16"/>
</g>
</g>
</g>
<path fill-rule="evenodd" clip-rule="evenodd" d="M57.2641 113.592C35.5183 114.548 18.1818 132.48 18.1818 154.461H18.1818V159.545H57.5918C55.6595 152.682 54.5454 144.607 54.5454 135.966C54.5454 127.826 55.5341 120.188 57.2641 113.592ZM92.9763 159.545H131.818V154.461C131.818 132.674 114.787 114.865 93.3117 113.621C95.037 120.211 96.0227 127.838 96.0227 135.966C96.0227 144.607 94.9086 152.682 92.9763 159.545Z" fill="#3A4C5A"/>
<path fill-rule="evenodd" clip-rule="evenodd" d="M102.841 145.909L108.27 141.837C109.09 141.222 110.22 141.232 111.029 141.861L114.773 144.773L102.841 145.909Z" fill="#E6E6E6"/>
<path fill-rule="evenodd" clip-rule="evenodd" d="M57.3863 112.955C55.1136 123.939 56.0606 139.47 60.2273 159.545H51.1363L43.1818 139.091L46.5909 133.977L43.1818 130.568L53.9773 113.523C55.1293 113.164 56.2657 112.975 57.3863 112.955Z" fill="#2F4351"/>
<path fill-rule="evenodd" clip-rule="evenodd" d="M92.6136 112.955C94.8863 123.939 93.9394 139.47 89.7727 159.545H98.8636L106.818 139.091L103.409 133.977L106.818 130.568L96.0227 113.523C94.8706 113.164 93.7343 112.975 92.6136 112.955Z" fill="#2F4351"/>
<path d="M67.0454 85.6818C67.0454 88.734 70.5444 90.7954 75 90.7954C79.4556 90.7954 82.9545 88.734 82.9545 85.6818C82.9545 85.0542 82.4149 84.5454 81.8182 84.5454C81.0837 84.5454 80.7558 85.0598 80.6818 85.6818C79.9759 87.3511 78.2291 88.3615 75 88.5227C71.7709 88.3615 70.0241 87.3511 69.3182 85.6818C69.2442 85.0598 68.9163 84.5454 68.1818 84.5454C67.585 84.5454 67.0454 85.0542 67.0454 85.6818Z" fill="black" fill-opacity="0.6"/>
<path fill-rule="evenodd" clip-rule="evenodd" d="M68.1818 74.3182C68.1818 76.8286 71.2344 78.8636 75 78.8636C78.7656 78.8636 81.8182 76.8286 81.8182 74.3182" fill="black" fill-opacity="0.16"/>
<path fill-rule="evenodd" clip-rule="evenodd" d="M58.6596 63.1509C58.2175 63.7258 57.9545 64.4459 57.9545 65.2273C57.9545 67.1101 59.4808 68.6364 61.3636 68.6364C63.2464 68.6364 64.7727 67.1101 64.7727 65.2273C64.7727 65.0624 64.761 64.9002 64.7384 64.7416C64.7428 64.6152 64.7215 64.4721 64.6678 64.3222C64.6423 64.2508 64.6148 64.1803 64.5856 64.1105C64.396 63.5635 64.071 63.0797 63.6508 62.6992C62.4425 61.4303 60.515 60.6818 58.5214 60.6818C55.7752 60.6818 53.4129 62.1867 52.3637 64.3451C52.0569 64.9764 52.5834 65.3979 53.0895 64.9839C54.4737 63.8516 56.3961 63.1499 58.5214 63.1499C58.5675 63.1499 58.6136 63.1502 58.6596 63.1509Z" fill="black" fill-opacity="0.6"/>
<path fill-rule="evenodd" clip-rule="evenodd" d="M91.6142 63.1509C91.172 63.7258 90.9091 64.4459 90.9091 65.2273C90.9091 67.1101 92.4354 68.6364 94.3182 68.6364C96.201 68.6364 97.7273 67.1101 97.7273 65.2273C97.7273 65.0624 97.7156 64.9002 97.6929 64.7416C97.6974 64.6152 97.676 64.4721 97.6224 64.3222C97.5968 64.2508 97.5694 64.1803 97.5402 64.1105C97.3506 63.5635 97.0256 63.0797 96.6053 62.6992C95.3971 61.4303 93.4696 60.6818 91.4759 60.6818C88.7298 60.6818 86.3674 62.1867 85.3183 64.3451C85.0114 64.9764 85.5379 65.3979 86.044 64.9839C87.4283 63.8516 89.3507 63.1499 91.4759 63.1499C91.5221 63.1499 91.5682 63.1502 91.6142 63.1509Z" fill="black" fill-opacity="0.6"/>
<path fill-rule="evenodd" clip-rule="evenodd" d="M56.1172 47.9423L56.6348 47.7135C59.6131 46.5311 64.1276 47.0268 66.8879 48.3518C67.2101 48.5065 66.9899 49.0068 66.6597 48.9813C58.1831 48.3273 52.4763 53.6094 50.5375 57.1858C50.4801 57.2919 50.3063 57.3039 50.2634 57.205C48.9524 54.183 52.7917 49.2592 56.1172 47.9423Z" fill="black" fill-opacity="0.6"/>
<path fill-rule="evenodd" clip-rule="evenodd" d="M93.8827 47.9423L93.3652 47.7135C90.3869 46.5311 85.8724 47.0268 83.1121 48.3518C82.7899 48.5065 83.0101 49.0068 83.3403 48.9813C91.8169 48.3273 97.5237 53.6094 99.4624 57.1858C99.5199 57.2919 99.6937 57.3039 99.7366 57.205C101.048 54.183 97.2083 49.2592 93.8827 47.9423Z" fill="black" fill-opacity="0.6"/>
<mask id="mask4" mask-type="alpha" maskUnits="userSpaceOnUse" x="0" y="0" width="150" height="160">
<path d="M150 0.454542H0V159.545H150V0.454542Z" fill="white"/>
</mask>
<g mask="url(#mask4)">
<mask id="mask5" mask-type="alpha" maskUnits="userSpaceOnUse" x="27" y="10" width="91" height="99">
<path fill-rule="evenodd" clip-rule="evenodd" d="M32.9545 58.6024C32.9545 68.0233 32.9545 83.1104 32.9545 103.864C32.9545 106.374 34.9896 108.409 37.5 108.409H61.3636V103.074C51.403 98.3426 44.2908 88.5879 43.3003 77.0836C40.0175 76.5922 37.5 73.7606 37.5 70.3409V62.9545C37.5 60.9713 38.3468 59.1857 39.6986 57.9398C46.255 56.4518 53.3924 53.6577 60.4213 49.5996C67.3144 45.6199 73.2068 40.942 77.7392 36.1092C75.7921 40.6025 73.4344 44.5386 70.666 47.9176C77.8678 44.7796 82.7715 39.7343 85.377 32.7819C85.5917 33.3057 85.8153 33.8289 86.0479 34.3513C91.8749 47.439 101.885 56.7151 112.049 59.7745C112.34 60.9736 112.5 62.0931 112.5 62.9545V70.3409C112.5 73.7606 109.982 76.5922 106.7 77.0836C105.709 88.5879 98.5971 98.3426 88.6364 103.074V108.409H98.8637C108.905 108.409 117.045 100.269 117.045 90.2273C117.045 76.5593 117.045 66.3083 117.045 59.4743C117.045 59.4363 117.04 59.387 117.029 59.3269C116.948 52.36 116.832 48.309 116.682 47.1736C113.964 26.5775 96.3384 10.6818 75 10.6818C54.4972 10.6818 37.422 25.357 33.5227 44.7727C30.3847 44.7727 27.8409 47.9525 27.8409 51.875C27.8409 54.4606 28.804 56.7859 30.5986 57.9961C31.1126 58.3428 32.0022 58.5214 32.9545 58.6024Z" fill="white"/>
</mask>
<g mask="url(#mask5)">
<path fill-rule="evenodd" clip-rule="evenodd" d="M32.9545 58.6024C32.9545 68.0233 32.9545 83.1104 32.9545 103.864C32.9545 106.374 34.9896 108.409 37.5 108.409H61.3636V103.074C51.403 98.3426 44.2908 88.5879 43.3003 77.0836C40.0175 76.5922 37.5 73.7606 37.5 70.3409V62.9545C37.5 60.9713 38.3468 59.1857 39.6986 57.9398C46.255 56.4518 53.3924 53.6577 60.4213 49.5996C67.3144 45.6199 73.2068 40.942 77.7392 36.1092C75.7921 40.6025 73.4344 44.5386 70.666 47.9176C77.8678 44.7796 82.7715 39.7343 85.377 32.7819C85.5917 33.3057 85.8153 33.8289 86.0479 34.3513C91.8749 47.439 101.885 56.7151 112.049 59.7745C112.34 60.9736 112.5 62.0931 112.5 62.9545V70.3409C112.5 73.7606 109.982 76.5922 106.7 77.0836C105.709 88.5879 98.5971 98.3426 88.6364 103.074V108.409H98.8637C108.905 108.409 117.045 100.269 117.045 90.2273C117.045 76.5593 117.045 66.3083 117.045 59.4743C117.045 59.4363 117.04 59.387 117.029 59.3269C116.948 52.36 116.832 48.309 116.682 47.1736C113.964 26.5775 96.3384 10.6818 75 10.6818C54.4972 10.6818 37.422 25.357 33.5227 44.7727C30.3847 44.7727 27.8409 47.9525 27.8409 51.875C27.8409 54.4606 28.804 56.7859 30.5986 57.9961C31.1126 58.3428 32.0022 58.5214 32.9545 58.6024Z" fill="#944F23"/>
<path d="M149.432 0.454535H-0.568176V159.545H149.432V0.454535Z" fill="#B58143"/>
</g>
<g opacity="0.439991">
<path opacity="0.439991" fill-rule="evenodd" clip-rule="evenodd" d="M34.6017 58.8494C42.4494 57.8492 51.5223 54.7374 60.4213 49.5996C67.3144 45.6199 73.2068 40.942 77.7392 36.1092C75.7921 40.6025 73.4344 44.5386 70.666 47.9176C77.8678 44.7796 82.7715 39.7343 85.3771 32.7819C85.5917 33.3057 85.8153 33.8289 86.0479 34.3513C92.8308 49.586 105.282 59.6559 117.045 60.7676V52.7273C117.045 29.5062 98.2211 10.6818 75 10.6818C54.4972 10.6818 37.422 25.357 33.7053 44.7763C33.6447 44.7739 33.5838 44.7727 33.5227 44.7727C30.3847 44.7727 27.8409 47.9525 27.8409 51.875C27.8409 55.5578 30.0833 58.5859 32.9545 58.9422V59.03C33.1343 59.0135 33.3147 58.9959 33.4959 58.9772C33.5048 58.9772 33.5138 58.9773 33.5227 58.9773C33.8917 58.9773 34.2524 58.9333 34.6017 58.8494Z" fill="white" fill-opacity="0.16"/>
</g>
<mask id="mask6" mask-type="alpha" maskUnits="userSpaceOnUse" x="40" y="56" width="70" height="69">
<path fill-rule="evenodd" clip-rule="evenodd" d="M64.307 85.5326C65.5473 84.6049 72.9583 84.2492 74.2942 83.4599C74.7112 83.2133 75.0347 82.9635 75.284 82.7159C75.5334 82.9635 75.8572 83.2133 76.2741 83.4599C77.6099 84.2492 85.0209 84.6049 86.2612 85.5326C87.5171 86.4721 88.4339 88.6277 88.3335 90.313C88.2131 92.3353 86.0009 97.1607 80.4957 97.7165C79.2942 96.3797 77.4073 95.5173 75.284 95.5173C73.161 95.5173 71.274 96.3797 70.0725 97.7165C64.5675 97.1607 62.3552 92.3353 62.2348 90.313C62.1345 88.6277 63.0513 86.4721 64.307 85.5326ZM85.876 95.2877C85.8767 95.2873 85.8776 95.287 85.8784 95.2868C85.8775 95.287 85.8767 95.2873 85.876 95.2877ZM64.6849 95.2849C64.6871 95.2859 64.6913 95.2873 64.6943 95.2885C64.6913 95.2873 64.6881 95.286 64.6849 95.2849ZM109.581 73.1735C109.36 69.79 108.681 66.4499 108.088 63.1172C107.928 62.22 107.059 56.1364 106.668 56.1364C106.535 61.3122 106.081 66.4093 105.494 71.5565C105.319 73.0952 105.135 74.6343 105.014 76.1785C104.917 77.4259 105.091 78.933 104.789 80.1395C104.403 81.6775 102.471 83.1127 100.968 83.6425C97.2176 84.9644 94.0897 79.4931 90.8869 77.8927C86.7292 75.8152 79.5817 75.3205 75.3305 78.0283C70.9865 75.3205 63.839 75.8152 59.6812 77.8927C56.4787 79.4931 53.3506 84.9644 49.6007 83.6425C48.0978 83.1127 46.165 81.6775 45.7798 80.1395C45.4775 78.933 45.6513 77.4259 45.554 76.1785C45.4332 74.6343 45.2494 73.0952 45.074 71.5565C44.4877 66.4093 44.0327 61.3122 43.9008 56.1364C43.5092 56.1364 42.6403 62.22 42.4807 63.1172C41.8876 66.4499 41.2079 69.79 40.9873 73.1735C40.7606 76.6504 41.0312 80.0952 41.7441 83.5019C42.0845 85.1294 42.4822 86.7475 42.9085 88.3546C43.3822 90.1402 42.7267 93.6171 42.9389 95.4501C43.3402 98.918 44.974 105.682 46.8087 108.665C47.6955 110.107 48.735 111.008 49.8958 112.17C51.0129 113.289 51.4795 115.023 52.6853 116.214C54.933 118.435 58.2078 119.756 61.5714 120.081C64.5894 122.642 69.6055 124.318 75.284 124.318C80.9629 124.318 85.9787 122.642 88.9969 120.081C92.3602 119.756 95.6352 118.435 97.883 116.214C99.0887 115.023 99.5553 113.289 100.673 112.17C101.833 111.008 102.873 110.107 103.76 108.665C105.594 105.682 107.228 98.918 107.629 95.4501C107.841 93.6171 107.186 90.1402 107.66 88.3546C108.086 86.7475 108.484 85.1294 108.824 83.5019C109.537 80.0952 109.808 76.6504 109.581 73.1735Z" fill="white"/>
</mask>
<g mask="url(#mask6)">
<path fill-rule="evenodd" clip-rule="evenodd" d="M64.307 85.5326C65.5473 84.6049 72.9583 84.2492 74.2942 83.4599C74.7112 83.2133 75.0347 82.9635 75.284 82.7159C75.5334 82.9635 75.8572 83.2133 76.2741 83.4599C77.6099 84.2492 85.0209 84.6049 86.2612 85.5326C87.5171 86.4721 88.4339 88.6277 88.3335 90.313C88.2131 92.3353 86.0009 97.1607 80.4957 97.7165C79.2942 96.3797 77.4073 95.5173 75.284 95.5173C73.161 95.5173 71.274 96.3797 70.0725 97.7165C64.5675 97.1607 62.3552 92.3353 62.2348 90.313C62.1345 88.6277 63.0513 86.4721 64.307 85.5326ZM85.876 95.2877C85.8767 95.2873 85.8776 95.287 85.8784 95.2868C85.8775 95.287 85.8767 95.2873 85.876 95.2877ZM64.6849 95.2849C64.6871 95.2859 64.6913 95.2873 64.6943 95.2885C64.6913 95.2873 64.6881 95.286 64.6849 95.2849ZM109.581 73.1735C109.36 69.79 108.681 66.4499 108.088 63.1172C107.928 62.22 107.059 56.1364 106.668 56.1364C106.535 61.3122 106.081 66.4093 105.494 71.5565C105.319 73.0952 105.135 74.6343 105.014 76.1785C104.917 77.4259 105.091 78.933 104.789 80.1395C104.403 81.6775 102.471 83.1127 100.968 83.6425C97.2176 84.9644 94.0897 79.4931 90.8869 77.8927C86.7292 75.8152 79.5817 75.3205 75.3305 78.0283C70.9865 75.3205 63.839 75.8152 59.6812 77.8927C56.4787 79.4931 53.3506 84.9644 49.6007 83.6425C48.0978 83.1127 46.165 81.6775 45.7798 80.1395C45.4775 78.933 45.6513 77.4259 45.554 76.1785C45.4332 74.6343 45.2494 73.0952 45.074 71.5565C44.4877 66.4093 44.0327 61.3122 43.9008 56.1364C43.5092 56.1364 42.6403 62.22 42.4807 63.1172C41.8876 66.4499 41.2079 69.79 40.9873 73.1735C40.7606 76.6504 41.0312 80.0952 41.7441 83.5019C42.0845 85.1294 42.4822 86.7475 42.9085 88.3546C43.3822 90.1402 42.7267 93.6171 42.9389 95.4501C43.3402 98.918 44.974 105.682 46.8087 108.665C47.6955 110.107 48.735 111.008 49.8958 112.17C51.0129 113.289 51.4795 115.023 52.6853 116.214C54.933 118.435 58.2078 119.756 61.5714 120.081C64.5894 122.642 69.6055 124.318 75.284 124.318C80.9629 124.318 85.9787 122.642 88.9969 120.081C92.3602 119.756 95.6352 118.435 97.883 116.214C99.0887 115.023 99.5553 113.289 100.673 112.17C101.833 111.008 102.873 110.107 103.76 108.665C105.594 105.682 107.228 98.918 107.629 95.4501C107.841 93.6171 107.186 90.1402 107.66 88.3546C108.086 86.7475 108.484 85.1294 108.824 83.5019C109.537 80.0952 109.808 76.6504 109.581 73.1735Z" fill="#4A312C"/>
<path d="M159.091 41.3636H9.09091V180H159.091V41.3636Z" fill="#2C1B18"/>
</g>
<g filter="url(#filter0_d)">
<path fill-rule="evenodd" clip-rule="evenodd" d="M65.4824 57.4291C66.83 57.4418 67.467 57.6658 67.6966 59.0711C67.9292 60.4946 67.703 62.095 67.4348 63.4971C67.0254 65.638 66.3447 67.7355 64.76 69.3003C63.9252 70.1243 62.9071 70.7811 61.8242 71.2296C61.2492 71.4679 60.6419 71.6399 60.0348 71.7703C59.8573 71.8084 58.3422 72.0171 59.2714 71.9111C57.1028 72.1586 54.75 72.1488 52.9388 70.7685C50.9316 69.2387 49.557 66.8181 48.9525 64.4069C48.5989 62.9961 47.8558 59.6219 49.2136 58.4938C50.7689 57.2014 65.4824 57.4291 65.4824 57.4291ZM51.8283 53.5741C48.7372 53.6806 46.6742 54.2238 45.1496 57.312C42.3555 62.9717 47.1379 71.4596 52.4729 73.7724C58.7098 76.4768 65.6774 73.484 68.9747 68.0715C70.721 65.2058 71.6037 60.8654 71.5468 57.559C71.4745 53.3389 68.5268 53.2219 65.0619 53.3147L51.8283 53.5741Z" fill="#D6EAF2"/>
<path fill-rule="evenodd" clip-rule="evenodd" d="M84.4776 57.4276C83.1301 57.4405 82.4931 57.6643 82.2635 59.0696C82.0309 60.4931 82.2571 62.0935 82.5251 63.4956C82.9346 65.6365 83.6154 67.734 85.2 69.2988C86.0348 70.1229 87.0529 70.7797 88.1358 71.2284C88.7109 71.4664 89.3182 71.6384 89.9253 71.7689C90.1027 71.807 91.6177 72.0159 90.6886 71.9096C92.8572 72.1571 95.21 72.1473 97.0212 70.767C99.0285 69.2373 100.403 66.8168 101.008 64.4056C101.361 62.9946 102.104 59.6206 100.746 58.4924C99.1912 57.1999 84.4776 57.4276 84.4776 57.4276ZM98.1316 53.5727C101.223 53.6791 103.286 54.2225 104.81 57.3105C107.604 62.9702 102.822 71.4581 97.4872 73.7712C91.2502 76.4753 84.2827 73.4825 80.9851 68.0702C79.2391 65.2043 78.3564 60.864 78.413 57.5575C78.4856 53.3374 81.4333 53.2204 84.8981 53.3134L98.1316 53.5727Z" fill="#D6EAF2"/>
<path fill-rule="evenodd" clip-rule="evenodd" d="M46.7028 56.0947C44.7642 56.2036 42.5489 56.2298 40.733 57.0678C38.8099 57.9553 38.5127 59.9652 40.9371 60.2421C42.029 60.3669 43.1221 60.1606 44.1973 59.9688C45.0778 59.8116 46.2739 59.8625 47.106 59.526C48.6566 58.8991 48.557 55.9887 46.7028 56.0947Z" fill="#D6EAF2"/>
<path fill-rule="evenodd" clip-rule="evenodd" d="M103.258 56.0947C105.197 56.2036 107.412 56.2298 109.228 57.0678C111.151 57.9553 111.448 59.9652 109.024 60.2421C107.932 60.3669 106.839 60.1606 105.764 59.9688C104.883 59.8116 103.687 59.8625 102.855 59.526C101.304 58.8991 101.404 55.9887 103.258 56.0947Z" fill="#D6EAF2"/>
<path fill-rule="evenodd" clip-rule="evenodd" d="M80.744 57.2799C79.6382 55.9731 76.7564 55.2185 74.9383 55.2185C73.1201 55.2185 70.3228 55.9731 69.2172 57.2799C68.6595 57.9388 68.6406 58.8204 69.607 59.2335C70.8104 59.7481 71.8849 58.815 72.8481 58.3269C74.0801 57.7026 75.9728 57.7712 77.1131 58.3269C78.0836 58.8 79.1506 59.7481 80.3542 59.2335C81.3206 58.8204 81.3016 57.9388 80.744 57.2799Z" fill="#D6EAF2"/>
</g>
</g>
</g>
</g>
<defs>
<filter id="filter0_d" x="32.3863" y="49.8864" width="85.1884" height="35.1251" filterUnits="userSpaceOnUse" color-interpolation-filters="sRGB">
<feFlood flood-opacity="0" result="BackgroundImageFix"/>
<feColorMatrix in="SourceAlpha" type="matrix" values="0 0 0 0 0 0 0 0 0 0 0 0 0 0 0 0 0 0 127 0"/>
<feOffset dy="3.40909"/>
<feGaussianBlur stdDeviation="3.40909"/>
<feColorMatrix type="matrix" values="0 0 0 0 0 0 0 0 0 0 0 0 0 0 0 0 0 0 0.2 0"/>
<feBlend mode="normal" in2="BackgroundImageFix" result="effect1_dropShadow"/>
<feBlend mode="normal" in="SourceGraphic" in2="effect1_dropShadow" result="shape"/>
</filter>
<clipPath id="clip0">
<rect width="150" height="160" fill="white"/>
</clipPath>
</defs>
</svg>
